<?xml version="1.0" encoding="UTF-8"?><svg id="Layer_2" xmlns="http://www.w3.org/2000/svg" viewBox="0 0 210.86 71.17"><defs><style>.cls-1{fill:#fff;}.cls-2{fill:#2491bc;}.cls-3{fill:#f5dba0;}</style></defs><g id="Layer_1-2"><g><polygon class="cls-2" points="68.49 47.45 41.1 47.45 27.4 23.72 41.1 0 68.49 47.45"/><path class="cls-1" d="M82.19,71.17h-13.69c-8.47,0-16.31-4.52-20.55-11.86l-6.85-11.86h27.4l13.69,23.72Z"/><path class="cls-3" d="M68.49,71.17H0l13.7-23.72h27.4l6.85,11.86c4.24,7.34,12.07,11.86,20.55,11.86Z"/><path class="cls-1" d="M90.59,47.64c-1.59,0-3.01-.31-4.25-.93-1.25-.62-2.23-1.46-2.97-2.52-.73-1.06-1.1-2.26-1.1-3.6,0-1.68,.43-3,1.28-3.97,.86-.96,2.27-1.67,4.25-2.1,1.98-.44,4.65-.65,8.01-.65h1.59v-1.21c0-1.77-.37-3.05-1.12-3.83-.75-.78-1.98-1.17-3.69-1.17-1,0-2.03,.12-3.11,.37s-2.19,.67-3.34,1.26c-.65,.31-1.19,.36-1.61,.14s-.71-.56-.86-1.03c-.16-.47-.14-.95,.05-1.45,.19-.5,.58-.87,1.17-1.12,1.37-.62,2.72-1.08,4.06-1.38,1.34-.3,2.6-.44,3.78-.44,3.11,0,5.42,.74,6.91,2.22,1.49,1.48,2.24,3.79,2.24,6.94v12c0,1.59-.73,2.38-2.2,2.38s-2.24-.79-2.24-2.38v-1.73c-.56,1.31-1.43,2.33-2.62,3.08-1.18,.75-2.6,1.12-4.25,1.12Zm.93-3.36c1.68,0,3.08-.59,4.2-1.78s1.68-2.68,1.68-4.48v-1.26h-1.54c-2.27,0-4.06,.11-5.35,.33-1.29,.22-2.21,.58-2.76,1.1-.54,.51-.82,1.22-.82,2.13,0,1.18,.4,2.14,1.21,2.87,.81,.73,1.93,1.1,3.36,1.1Z"/><path class="cls-1" d="M109.77,47.54c-1.59,0-2.38-.79-2.38-2.38V26.48c0-1.59,.76-2.38,2.29-2.38s2.29,.79,2.29,2.38v2.01c.62-1.4,1.56-2.48,2.83-3.22,1.26-.75,2.79-1.18,4.6-1.31,1.15-.09,1.78,.53,1.87,1.87,.12,1.37-.55,2.12-2.01,2.24l-.89,.09c-4.14,.41-6.21,2.54-6.21,6.4v10.6c0,1.59-.79,2.38-2.38,2.38Z"/><path class="cls-1" d="M127.19,47.54c-1.59,0-2.38-.79-2.38-2.38V26.48c0-1.59,.76-2.38,2.29-2.38s2.29,.79,2.29,2.38v2.01c.62-1.4,1.56-2.48,2.83-3.22,1.26-.75,2.79-1.18,4.6-1.31,1.15-.09,1.78,.53,1.87,1.87,.12,1.37-.55,2.12-2.01,2.24l-.89,.09c-4.14,.41-6.21,2.54-6.21,6.4v10.6c0,1.59-.79,2.38-2.38,2.38Z"/><path class="cls-1" d="M151.81,47.64c-2.3,0-4.3-.48-5.98-1.45s-2.98-2.33-3.9-4.09c-.92-1.76-1.38-3.85-1.38-6.28s.46-4.52,1.38-6.28c.92-1.76,2.22-3.12,3.9-4.09,1.68-.96,3.67-1.45,5.98-1.45s4.2,.48,5.89,1.45c1.68,.97,2.99,2.33,3.92,4.09,.93,1.76,1.4,3.85,1.4,6.28s-.47,4.52-1.4,6.28c-.93,1.76-2.24,3.12-3.92,4.09s-3.64,1.45-5.89,1.45Zm0-3.64c1.93,0,3.49-.7,4.67-2.1,1.18-1.4,1.77-3.42,1.77-6.07s-.59-4.66-1.77-6.05c-1.18-1.38-2.74-2.08-4.67-2.08s-3.53,.69-4.72,2.08c-1.18,1.39-1.77,3.4-1.77,6.05s.59,4.67,1.77,6.07c1.18,1.4,2.76,2.1,4.72,2.1Z"/><path class="cls-1" d="M172.25,55.95c-.87,0-1.47-.32-1.8-.96-.33-.64-.3-1.38,.07-2.22l2.76-6.17-8.31-19.29c-.37-.84-.38-1.59-.02-2.24,.36-.65,1.07-.98,2.13-.98,.56,0,1.02,.14,1.38,.42,.36,.28,.68,.76,.96,1.45l6.4,15.79,6.49-15.79c.28-.72,.61-1.21,.98-1.47,.37-.26,.89-.4,1.54-.4,.84,0,1.42,.33,1.73,.98,.31,.65,.3,1.39-.05,2.2l-11.68,26.86c-.31,.72-.66,1.2-1.05,1.45-.39,.25-.9,.37-1.52,.37Z"/><path class="cls-1" d="M199.65,47.64c-2.3,0-4.3-.48-5.98-1.45s-2.98-2.33-3.9-4.09c-.92-1.76-1.38-3.85-1.38-6.28s.46-4.52,1.38-6.28c.92-1.76,2.22-3.12,3.9-4.09,1.68-.96,3.67-1.45,5.98-1.45s4.2,.48,5.89,1.45c1.68,.97,2.99,2.33,3.92,4.09,.93,1.76,1.4,3.85,1.4,6.28s-.47,4.52-1.4,6.28c-.93,1.76-2.24,3.12-3.92,4.09s-3.64,1.45-5.89,1.45Zm0-3.64c1.93,0,3.49-.7,4.67-2.1,1.18-1.4,1.77-3.42,1.77-6.07s-.59-4.66-1.77-6.05c-1.18-1.38-2.74-2.08-4.67-2.08s-3.53,.69-4.72,2.08c-1.18,1.39-1.77,3.4-1.77,6.05s.59,4.67,1.77,6.07c1.18,1.4,2.76,2.1,4.72,2.1Z"/></g></g></svg>